<svg xmlns="http://www.w3.org/2000/svg" width="741" height="341" viewBox="746 270 741 341" version="1.1"><path d="M 760 340.472 L 760 402 768.500 402 L 777 402 777 349.800 C 777 320.771, 777.380 298.022, 777.856 298.550 C 778.327 299.072, 787.890 322.557, 799.106 350.737 L 819.500 401.973 824.574 401.987 L 829.647 402 850.574 349.750 L 871.500 297.500 871.759 349.750 L 872.018 402 881.017 402 L 890.015 402 889.758 340.750 L 889.500 279.500 875.628 279.500 L 861.756 279.500 843.598 325.697 C 833.610 351.106, 825.167 372.166, 824.835 372.498 C 824.503 372.830, 820.288 363.066, 815.469 350.801 C 810.650 338.535, 802.374 317.475, 797.078 304 L 787.450 279.500 773.725 279.222 L 760 278.944 760 340.472 M 949.176 284.250 C 948.094 287.137, 937.880 314.025, 926.478 344 C 915.076 373.975, 905.527 399.288, 905.257 400.250 C 904.816 401.823, 905.674 402, 913.743 402 L 922.720 402 929.610 383.750 L 936.500 365.500 958.655 365.231 L 980.811 364.962 983.555 372.231 C 985.064 376.229, 988.193 384.450, 990.507 390.500 L 994.716 401.500 1003.980 401.789 C 1011.209 402.015, 1013.140 401.795, 1012.772 400.789 C 1012.513 400.080, 1002.013 372.387, 989.439 339.250 L 966.577 279 958.860 279 L 951.144 279 949.176 284.250 M 1027 340.500 L 1027 402 1035.500 402 L 1044 402 1044 377.500 L 1044 353 1057.250 352.985 C 1065.528 352.976, 1072.907 352.403, 1076.913 351.459 C 1096.269 346.896, 1106.004 333.571, 1104.743 313.365 C 1104.085 302.818, 1100.944 295.933, 1093.901 289.601 C 1084.753 281.376, 1073.613 279.023, 1043.750 279.008 L 1027 279 1027 340.500 M 1139.176 284.250 C 1138.094 287.137, 1127.880 314.025, 1116.478 344 C 1105.076 373.975, 1095.527 399.288, 1095.257 400.250 C 1094.816 401.823, 1095.674 402, 1103.743 402 L 1112.720 402 1119.610 383.750 L 1126.500 365.500 1148.655 365.231 L 1170.811 364.962 1173.555 372.231 C 1175.064 376.229, 1178.193 384.450, 1180.507 390.500 L 1184.716 401.500 1193.980 401.789 C 1201.209 402.015, 1203.140 401.795, 1202.772 400.789 C 1202.513 400.080, 1192.013 372.387, 1179.439 339.250 L 1156.577 279 1148.860 279 L 1141.144 279 1139.176 284.250 M 1266 340.492 L 1266 402.252 1292.250 401.733 C 1315.125 401.281, 1319.445 400.939, 1325.852 399.075 C 1334.846 396.459, 1340.049 393.883, 1346.227 388.990 C 1360.455 377.718, 1367.079 362.527, 1367.150 341 C 1367.183 331.325, 1366.781 328.230, 1364.620 321.500 C 1358.081 301.137, 1343.726 286.976, 1323.955 281.384 C 1319.962 280.255, 1311.462 279.693, 1292.250 279.287 L 1266 278.733 1266 340.492 M 1415.915 281.708 C 1415.328 283.244, 1404.938 310.600, 1392.826 342.500 C 1380.714 374.400, 1370.597 400.837, 1370.343 401.250 C 1370.090 401.663, 1374.077 402, 1379.205 402 L 1388.528 402 1394.925 384.750 C 1398.444 375.262, 1401.755 366.938, 1402.284 366.250 C 1402.999 365.319, 1408.675 365, 1424.500 365 C 1440.330 365, 1445.998 365.319, 1446.707 366.250 C 1447.231 366.938, 1450.548 375.258, 1454.080 384.741 L 1460.500 401.982 1469.729 401.991 L 1478.958 402 1476.448 395.250 C 1475.068 391.538, 1464.615 363.975, 1453.219 334 L 1432.500 279.500 1424.741 279.208 C 1417.062 278.919, 1416.972 278.944, 1415.915 281.708 M 1044 315.884 L 1044 337 1056.057 337 C 1071.469 337, 1076.095 335.837, 1081.546 330.595 C 1087.009 325.342, 1088.722 319.750, 1087.177 312.220 C 1085.694 304.997, 1082.717 301.222, 1076.091 298.162 C 1071.184 295.895, 1068.880 295.530, 1057.250 295.174 L 1044 294.768 1044 315.884 M 1283 340.615 L 1283 386.231 1299.750 385.746 C 1318.781 385.194, 1323.773 384.045, 1332.370 378.234 C 1343.726 370.560, 1348.980 360.361, 1349.753 344.494 C 1350.775 323.522, 1342.847 308.446, 1326.609 300.484 C 1317.526 296.030, 1311.753 295, 1295.864 295 L 1283 295 1283 340.615 M 950.726 325.299 C 946.477 338.085, 943 348.873, 943 349.273 C 943 349.673, 950.248 350, 959.107 350 C 971.571 350, 975.110 349.717, 974.754 348.750 C 974.501 348.063, 971.022 337.600, 967.022 325.500 C 963.023 313.400, 959.458 303.174, 959.101 302.776 C 958.743 302.377, 954.975 312.512, 950.726 325.299 M 1140.726 325.299 C 1136.477 338.085, 1133 348.873, 1133 349.273 C 1133 349.673, 1140.248 350, 1149.107 350 C 1161.571 350, 1165.110 349.717, 1164.754 348.750 C 1164.501 348.063, 1161.022 337.600, 1157.022 325.500 C 1153.023 313.400, 1149.458 303.174, 1149.101 302.776 C 1148.743 302.377, 1144.975 312.512, 1140.726 325.299 M 1416.634 324.692 C 1412.427 337.236, 1408.988 348.063, 1408.992 348.750 C 1408.998 349.695, 1412.738 350, 1424.333 350 C 1432.767 350, 1439.922 349.745, 1440.233 349.434 C 1440.834 348.832, 1426.259 304.067, 1425.015 302.692 C 1424.613 302.247, 1420.841 312.147, 1416.634 324.692 M 807.972 476.926 C 784.182 480.210, 764.065 497.313, 756.718 520.500 C 754.885 526.285, 754.508 529.757, 754.546 540.500 C 754.587 551.993, 754.891 554.282, 757.169 560.242 C 764.527 579.493, 778.701 593.603, 797.333 600.227 C 806.273 603.405, 825.519 603.439, 835.500 600.295 C 848.050 596.341, 860.742 587.049, 867.999 576.502 C 869.650 574.103, 871 571.883, 871 571.570 C 871 571.256, 866.454 571, 860.897 571 L 850.794 571 845.647 575.653 C 842.816 578.212, 837.575 581.699, 834 583.403 C 827.900 586.309, 826.792 586.500, 816 586.500 C 805.323 586.500, 804.070 586.291, 798.500 583.576 C 786.081 577.523, 775.003 563.096, 772.105 549.201 C 766.576 522.687, 783.896 497.190, 810.422 492.794 C 823.086 490.696, 835.780 494.703, 846.371 504.143 L 851.821 509 861.936 509 L 872.051 509 870.381 505.750 C 869.462 503.962, 865.223 499.006, 860.961 494.735 C 854.754 488.514, 851.550 486.196, 844.856 483.083 C 832.971 477.554, 819.595 475.322, 807.972 476.926 M 889.203 525.750 C 889.513 572.140, 889.533 572.545, 891.864 578.344 C 895.567 587.554, 901.336 593.861, 910.192 598.384 C 917.057 601.890, 918.730 602.317, 927.370 602.769 C 935.402 603.189, 938.033 602.918, 943.721 601.082 C 955.653 597.233, 963.452 589.930, 968.218 578.145 C 970.464 572.588, 970.505 571.771, 970.796 525.750 L 971.092 479 962.611 479 L 954.130 479 953.815 523.823 L 953.500 568.646 950.487 574.534 C 948.474 578.470, 946.041 581.430, 943.151 583.461 C 939.134 586.284, 938.208 586.500, 930.091 586.500 C 922.251 586.500, 920.931 586.220, 917.232 583.772 C 911.682 580.100, 908.276 573.975, 907.045 565.455 C 906.492 561.630, 906.031 540.612, 906.020 518.750 L 906 479 897.446 479 L 888.891 479 889.203 525.750 M 997 540 L 997 601 1027 601 L 1057 601 1057 593.020 L 1057 585.040 1035.750 584.770 L 1014.500 584.500 1014.241 531.750 L 1013.982 479 1005.491 479 L 997 479 997 540 M 1051 486.468 L 1051 493.937 1062.750 494.218 L 1074.500 494.500 1074.759 547.750 L 1075.018 601 1083.500 601 L 1091.982 601 1092.241 547.750 L 1092.500 494.500 1104.250 494.218 L 1116 493.937 1116 486.468 L 1116 479 1083.500 479 L 1051 479 1051 486.468 M 1130.205 526.773 L 1130.500 574.547 1133.774 581.195 C 1140.233 594.311, 1151.858 601.778, 1167.359 602.768 C 1185.892 603.951, 1200.040 596.255, 1207.375 581 L 1210.500 574.500 1210.787 526.750 L 1211.074 479 1202.584 479 L 1194.094 479 1193.797 524.750 C 1193.507 569.429, 1193.449 570.594, 1191.342 574.500 C 1186.796 582.924, 1179.892 587.015, 1170.282 586.978 C 1163.160 586.951, 1157.564 584.545, 1153.284 579.671 C 1147.270 572.821, 1147 570.358, 1147 522.318 L 1147 479 1138.455 479 L 1129.909 479 1130.205 526.773 M 1235 539.927 L 1235 601 1243.500 601 L 1252 601 1252 572.500 C 1252 556.825, 1252.338 544.019, 1252.750 544.041 C 1253.162 544.064, 1262.500 556.872, 1273.500 572.503 L 1293.500 600.924 1304.309 600.962 C 1312.700 600.991, 1314.949 600.720, 1314.362 599.750 C 1313.946 599.063, 1306.494 589.012, 1297.803 577.415 C 1289.111 565.818, 1282 556.081, 1282 555.778 C 1282 555.475, 1284.042 554.921, 1286.538 554.547 C 1299.758 552.564, 1310.990 543.216, 1314.685 531.121 C 1316.573 524.939, 1316.445 510.836, 1314.440 504.097 C 1311.307 493.573, 1304.264 485.855, 1294.079 481.788 C 1288.893 479.716, 1286.616 479.535, 1261.750 479.207 L 1235 478.855 1235 539.927 M 1348.725 539.270 C 1336.199 572.396, 1325.961 599.837, 1325.975 600.250 C 1325.989 600.663, 1329.981 601, 1334.846 601 L 1343.693 601 1347.485 590.750 C 1349.570 585.112, 1352.607 577.004, 1354.233 572.731 L 1357.189 564.963 1379.704 565.231 L 1402.220 565.500 1408.842 583.250 L 1415.464 601 1424.717 601 L 1433.971 601 1432.124 596.250 C 1431.108 593.638, 1420.678 566.188, 1408.945 535.250 L 1387.614 479 1379.557 479.020 L 1371.500 479.040 1348.725 539.270 M 1252.667 494.667 C 1252.300 495.033, 1252 505.885, 1252 518.782 L 1252 542.232 1265.250 541.748 C 1280.064 541.207, 1285.360 539.801, 1291.435 534.793 C 1296.302 530.781, 1298.950 524.962, 1298.978 518.218 C 1299.031 505.362, 1291 497.148, 1276.294 495.022 C 1268.519 493.898, 1253.659 493.674, 1252.667 494.667 M 1371.640 524.444 C 1367.438 536.854, 1364 547.456, 1364 548.004 C 1364 548.624, 1370.016 549, 1379.922 549 L 1395.844 549 1388.295 526.250 C 1384.143 513.737, 1380.416 503.135, 1380.013 502.690 C 1379.610 502.244, 1375.842 512.033, 1371.640 524.444" stroke="none" fill="#5a5a59" fill-rule="evenodd"/></svg>